<mxfile host="app.diagrams.net" modified="2021-09-26T14:42:19.646Z" agent="5.0 (Windows NT 10.0; Win64; x64) AppleWebKit/537.36 (KHTML, like Gecko) Chrome/93.0.4577.82 Safari/537.36" etag="DZEJtiS4TNCwlxHF4mWF" version="15.1.4" type="github">
  <diagram id="wgS4xxnyvkivFLriIKXw" name="Page-1">
    <mxGraphModel dx="2155" dy="802" grid="1" gridSize="10" guides="1" tooltips="1" connect="1" arrows="1" fold="1" page="1" pageScale="1" pageWidth="827" pageHeight="1169" math="0" shadow="0">
      <root>
        <mxCell id="0" />
        <mxCell id="1" parent="0" />
        <mxCell id="EPB4FNZrF85I9adDlARZ-1" value="" style="rounded=1;whiteSpace=wrap;html=1;fillColor=#f5f5f5;strokeColor=#666666;fontColor=#333333;" vertex="1" parent="1">
          <mxGeometry x="-70" y="240" width="780" height="100" as="geometry" />
        </mxCell>
        <mxCell id="EPB4FNZrF85I9adDlARZ-17" value="" style="rounded=1;whiteSpace=wrap;html=1;strokeColor=#314354;fontColor=#ffffff;fillColor=#999999;opacity=80;" vertex="1" parent="1">
          <mxGeometry x="90" y="210" width="460" height="160" as="geometry" />
        </mxCell>
        <mxCell id="EPB4FNZrF85I9adDlARZ-2" value="" style="edgeStyle=orthogonalEdgeStyle;rounded=0;orthogonalLoop=1;jettySize=auto;html=1;" edge="1" parent="1" source="EPB4FNZrF85I9adDlARZ-3" target="EPB4FNZrF85I9adDlARZ-5">
          <mxGeometry relative="1" as="geometry" />
        </mxCell>
        <mxCell id="EPB4FNZrF85I9adDlARZ-3" value="head msg" style="rounded=1;whiteSpace=wrap;html=1;fillColor=#dae8fc;strokeColor=#6c8ebf;" vertex="1" parent="1">
          <mxGeometry x="110" y="260" width="120" height="60" as="geometry" />
        </mxCell>
        <mxCell id="EPB4FNZrF85I9adDlARZ-4" value="" style="edgeStyle=orthogonalEdgeStyle;rounded=0;orthogonalLoop=1;jettySize=auto;html=1;" edge="1" parent="1" source="EPB4FNZrF85I9adDlARZ-5" target="EPB4FNZrF85I9adDlARZ-7">
          <mxGeometry relative="1" as="geometry" />
        </mxCell>
        <mxCell id="EPB4FNZrF85I9adDlARZ-5" value="msg 2" style="rounded=1;whiteSpace=wrap;html=1;fillColor=#dae8fc;strokeColor=#6c8ebf;" vertex="1" parent="1">
          <mxGeometry x="260" y="260" width="120" height="60" as="geometry" />
        </mxCell>
        <mxCell id="EPB4FNZrF85I9adDlARZ-16" value="" style="edgeStyle=orthogonalEdgeStyle;rounded=0;orthogonalLoop=1;jettySize=auto;html=1;dashed=1;" edge="1" parent="1" source="EPB4FNZrF85I9adDlARZ-7" target="EPB4FNZrF85I9adDlARZ-12">
          <mxGeometry relative="1" as="geometry" />
        </mxCell>
        <mxCell id="EPB4FNZrF85I9adDlARZ-7" value="..." style="rounded=1;whiteSpace=wrap;html=1;fillColor=#dae8fc;strokeColor=#6c8ebf;" vertex="1" parent="1">
          <mxGeometry x="414" y="260" width="120" height="60" as="geometry" />
        </mxCell>
        <mxCell id="EPB4FNZrF85I9adDlARZ-15" value="" style="edgeStyle=orthogonalEdgeStyle;rounded=0;orthogonalLoop=1;jettySize=auto;html=1;dashed=1;" edge="1" parent="1" source="EPB4FNZrF85I9adDlARZ-8" target="EPB4FNZrF85I9adDlARZ-3">
          <mxGeometry relative="1" as="geometry" />
        </mxCell>
        <mxCell id="EPB4FNZrF85I9adDlARZ-8" value="target null" style="rounded=1;whiteSpace=wrap;html=1;opacity=20;" vertex="1" parent="1">
          <mxGeometry x="-40" y="260" width="120" height="60" as="geometry" />
        </mxCell>
        <mxCell id="EPB4FNZrF85I9adDlARZ-9" value="" style="edgeStyle=orthogonalEdgeStyle;rounded=0;orthogonalLoop=1;jettySize=auto;html=1;fillColor=#ffe6cc;strokeColor=#d79b00;" edge="1" parent="1" source="EPB4FNZrF85I9adDlARZ-10" target="EPB4FNZrF85I9adDlARZ-8">
          <mxGeometry relative="1" as="geometry" />
        </mxCell>
        <mxCell id="EPB4FNZrF85I9adDlARZ-10" value="barrier&lt;br&gt;msg" style="rounded=1;whiteSpace=wrap;html=1;fillColor=#fff2cc;strokeColor=#d6b656;" vertex="1" parent="1">
          <mxGeometry x="-40" y="140" width="120" height="60" as="geometry" />
        </mxCell>
        <mxCell id="EPB4FNZrF85I9adDlARZ-12" value="" style="rounded=1;whiteSpace=wrap;html=1;opacity=20;" vertex="1" parent="1">
          <mxGeometry x="570" y="260" width="120" height="60" as="geometry" />
        </mxCell>
        <mxCell id="EPB4FNZrF85I9adDlARZ-13" value="" style="edgeStyle=orthogonalEdgeStyle;rounded=0;orthogonalLoop=1;jettySize=auto;html=1;fillColor=#f8cecc;strokeColor=#b85450;" edge="1" parent="1" source="EPB4FNZrF85I9adDlARZ-14" target="EPB4FNZrF85I9adDlARZ-12">
          <mxGeometry relative="1" as="geometry" />
        </mxCell>
        <mxCell id="EPB4FNZrF85I9adDlARZ-14" value="async&lt;br&gt;msg" style="rounded=1;whiteSpace=wrap;html=1;fillColor=#d5e8d4;strokeColor=#82b366;" vertex="1" parent="1">
          <mxGeometry x="570" y="140" width="120" height="60" as="geometry" />
        </mxCell>
        <mxCell id="EPB4FNZrF85I9adDlARZ-18" value="blocked" style="text;html=1;strokeColor=none;fillColor=none;align=center;verticalAlign=middle;whiteSpace=wrap;rounded=0;" vertex="1" parent="1">
          <mxGeometry x="300" y="220" width="40" height="20" as="geometry" />
        </mxCell>
      </root>
    </mxGraphModel>
  </diagram>
</mxfile>
